<svg width="309" height="72" viewBox="0 0 309 72" fill="none" xmlns="http://www.w3.org/2000/svg">
<rect width="309" height="72" fill="#1E1E1E"/>
<path d="M15.24 26.472C15.24 46.312 15.688 59.304 16.584 65.448C16.584 66.984 15.112 68.232 12.168 69.192C9.224 70.216 6.792 70.728 4.872 70.728C2.952 70.728 1.992 70.44 1.992 69.864C1.992 69.48 2.088 69 2.28 68.424C3.496 65.736 4.104 54.92 4.104 35.976C4.104 18.056 3.336 8.104 1.8 6.12L1.416 5.544C1.032 5.224 0.84 4.84 0.84 4.392C0.84 3.88 1.192 3.46399 1.896 3.144C2.856 2.568 4.552 1.99199 6.984 1.41599C9.48 0.839994 11.72 0.551994 13.704 0.551994C15.688 0.551994 16.68 0.999994 16.68 1.89599V2.184C15.912 8.84 15.432 16.936 15.24 26.472ZM23.4113 69.672C24.5633 62.76 25.1393 54.472 25.1393 44.808C25.1393 35.144 24.8513 28.872 24.2753 25.992C24.2753 25.16 25.2353 24.744 27.1553 24.744C30.0993 24.744 32.0513 25.864 33.0113 28.104C33.0753 28.296 33.2353 28.392 33.4913 28.392C33.7473 28.392 33.9393 28.328 34.0673 28.2C36.0513 26.152 39.1233 25.128 43.2833 25.128C47.4433 25.128 50.7393 26.184 53.1713 28.296C55.6033 30.408 56.8193 33.48 56.8193 37.512C56.8193 39.944 56.5953 43.4 56.1473 47.88C55.7633 52.36 55.5713 55.688 55.5713 57.864C55.5713 63.048 56.4353 66.792 58.1633 69.096C58.4193 69.416 58.5473 69.736 58.5473 70.056C58.5473 70.888 57.6513 71.304 55.8593 71.304C47.9233 71.304 43.9553 67.784 43.9553 60.744C43.9553 58.056 44.5633 54.312 45.7793 49.512C46.9953 44.712 47.6033 41.064 47.6033 38.568C47.6033 33.448 45.4913 30.888 41.2673 30.888C39.2193 30.888 37.6513 31.496 36.5633 32.712C35.5393 33.928 34.9633 35.336 34.8353 36.936C34.7073 38.472 34.6432 41.416 34.6432 45.768C34.6432 52.424 34.8673 58.216 35.3153 63.144L35.5073 65.256C35.5073 67.048 34.3233 68.424 31.9553 69.384C29.6513 70.408 27.6353 70.92 25.9073 70.92C24.2433 70.92 23.4113 70.504 23.4113 69.672ZM60.315 31.56L60.603 27.72C60.667 27.144 61.115 26.856 61.947 26.856H65.307L64.923 19.176V18.792C64.923 17.32 66.043 15.912 68.283 14.568C70.523 13.224 72.571 12.552 74.427 12.552C75.003 12.552 75.291 12.808 75.291 13.32V13.416C75.035 15.144 74.779 19.592 74.523 26.76C77.339 26.76 79.131 26.696 79.899 26.568C80.667 26.44 81.083 26.376 81.147 26.376C81.595 26.376 81.819 26.76 81.819 27.528C81.819 28.296 81.467 29.288 80.763 30.504C80.059 31.656 79.291 32.264 78.459 32.328H74.427C74.363 34.504 74.331 38.184 74.331 43.368C74.331 48.488 74.363 52.712 74.427 56.04C74.555 59.368 74.683 61.896 74.811 63.624C74.939 65.288 75.067 66.632 75.195 67.656C75.387 68.68 75.515 69.416 75.579 69.864C75.707 70.312 75.771 70.6 75.771 70.728C75.771 71.368 75.355 71.72 74.523 71.784C72.027 71.784 69.531 71.432 67.035 70.728C64.603 70.024 63.387 68.808 63.387 67.08C64.731 56.328 65.403 44.776 65.403 32.424C63.675 32.424 62.363 32.488 61.467 32.616H61.371C60.795 32.616 60.443 32.264 60.315 31.56ZM91.4062 44.616L91.5023 47.016C91.5023 47.4 91.7583 47.592 92.2703 47.592C94.3183 47.4 96.1103 46.888 97.6463 46.056C99.1823 45.16 100.334 44.168 101.102 43.08C102.638 40.712 103.47 38.664 103.598 36.936L103.694 35.784C103.694 32.328 102.318 30.6 99.5663 30.6C97.5183 30.6 95.8543 31.496 94.5743 33.288C92.4623 36.104 91.4062 39.88 91.4062 44.616ZM112.334 57.384C112.334 59.816 111.822 61.96 110.798 63.816C109.838 65.608 108.718 66.952 107.438 67.848C106.222 68.68 104.782 69.352 103.118 69.864C101.006 70.504 98.9903 70.824 97.0703 70.824C91.6943 70.824 87.7263 68.808 85.1663 64.776C82.6063 60.744 81.3263 55.624 81.3263 49.416C81.3263 43.144 82.8943 37.576 86.0303 32.712C89.2303 27.848 93.9983 25.416 100.334 25.416C106.094 25.416 109.998 27.432 112.046 31.464C112.878 33 113.294 34.472 113.294 35.88C113.294 37.224 113.23 38.312 113.102 39.144C112.974 39.912 112.526 41.096 111.758 42.696C110.99 44.296 109.966 45.736 108.686 47.016C107.406 48.296 105.39 49.512 102.638 50.664C99.8863 51.816 96.6543 52.584 92.9423 52.968C92.4303 52.968 92.1743 53.192 92.1743 53.64C92.1743 54.216 92.3663 55.08 92.7503 56.232C93.1983 57.32 93.6783 58.248 94.1903 59.016C95.5983 60.808 97.6783 61.704 100.43 61.704C103.182 61.704 105.518 60.808 107.438 59.016C108.462 58.056 109.294 56.872 109.934 55.464C110.19 54.952 110.51 54.696 110.894 54.696C111.342 54.696 111.694 55.048 111.95 55.752C112.206 56.456 112.334 57 112.334 57.384ZM129.653 14.088L129.077 49.32C129.077 60.328 129.429 66.92 130.133 69.096C130.325 69.48 130.421 69.864 130.421 70.248C130.421 71.016 129.493 71.4 127.637 71.4C125.781 71.4 123.701 70.92 121.397 69.96C119.157 69.064 118.037 67.88 118.037 66.408C119.317 57.448 119.957 45.48 119.957 30.504L119.573 15.816C119.445 14.024 119.061 12.488 118.421 11.208C117.845 9.928 117.269 9.096 116.693 8.712L115.925 8.232C115.477 7.976 115.253 7.688 115.253 7.368C115.253 6.472 116.629 5.384 119.381 4.10399C122.197 2.76 124.917 2.088 127.541 2.088C128.565 2.088 129.141 2.44 129.269 3.144C129.525 4.808 129.653 8.456 129.653 14.088ZM149.153 14.088L148.577 49.32C148.577 60.328 148.929 66.92 149.633 69.096C149.825 69.48 149.921 69.864 149.921 70.248C149.921 71.016 148.993 71.4 147.137 71.4C145.281 71.4 143.201 70.92 140.897 69.96C138.657 69.064 137.537 67.88 137.537 66.408C138.817 57.448 139.457 45.48 139.457 30.504L139.073 15.816C138.945 14.024 138.561 12.488 137.921 11.208C137.345 9.928 136.769 9.096 136.193 8.712L135.425 8.232C134.977 7.976 134.753 7.688 134.753 7.368C134.753 6.472 136.129 5.384 138.881 4.10399C141.697 2.76 144.417 2.088 147.041 2.088C148.065 2.088 148.641 2.44 148.769 3.144C149.025 4.808 149.153 8.456 149.153 14.088ZM165.581 17.64L163.277 17.544C161.549 17.544 160.429 17.96 159.917 18.792C159.789 18.984 159.629 19.08 159.437 19.08C158.605 19.08 158.189 17.672 158.189 14.856C158.189 11.976 158.605 10.152 159.437 9.384C160.333 8.616 161.837 8.232 163.949 8.232C166.125 8.232 167.597 8.616 168.365 9.384C169.133 10.088 169.517 11.304 169.517 13.032C169.517 14.76 169.229 15.976 168.653 16.68C168.077 17.32 167.053 17.64 165.581 17.64ZM157.901 66.12L158.957 43.752C158.957 38.44 158.349 34.824 157.133 32.904C156.749 32.264 156.301 31.784 155.789 31.464C155.405 31.336 155.213 31.08 155.213 30.696C155.213 29.544 156.845 28.424 160.109 27.336C163.373 26.248 165.741 25.704 167.213 25.704C168.749 25.704 169.549 26.088 169.613 26.856C169.613 28.136 169.421 31.784 169.037 37.8C168.717 43.752 168.557 50.024 168.557 56.616C168.557 63.208 168.941 67.304 169.709 68.904C169.901 69.224 169.997 69.544 169.997 69.864C169.997 70.696 168.781 71.112 166.349 71.112C163.917 71.112 161.421 70.472 158.861 69.192C158.221 68.872 157.901 67.848 157.901 66.12ZM207.241 57.96C207.241 61.608 205.769 64.648 202.825 67.08C199.945 69.448 196.489 70.632 192.457 70.632C186.569 70.632 182.249 68.872 179.497 65.352C176.745 61.768 175.369 56.936 175.369 50.856C175.369 44.392 176.809 38.664 179.689 33.672C181.097 31.112 183.113 29.096 185.737 27.624C188.361 26.152 191.433 25.416 194.953 25.416C200.265 25.416 204.009 27.208 206.185 30.792C207.081 32.264 207.529 33.992 207.529 35.976C207.529 39.048 206.249 41.352 203.689 42.888C202.665 43.464 201.705 43.752 200.809 43.752C199.977 43.752 199.273 43.72 198.697 43.656C198.185 43.528 197.481 43.08 196.585 42.312C195.689 41.544 195.241 40.488 195.241 39.144C195.305 38.44 195.849 37.864 196.873 37.416C197.833 36.84 198.313 35.816 198.313 34.344C198.313 31.848 196.777 30.6 193.705 30.6C192.937 30.6 192.009 30.952 190.921 31.656C189.897 32.296 189.033 33.16 188.329 34.248C187.625 35.272 186.953 36.936 186.313 39.24C185.737 41.48 185.449 43.656 185.449 45.768C185.449 47.816 185.513 49.384 185.641 50.472C185.833 51.496 186.185 52.936 186.697 54.792C187.273 56.584 188.297 58.056 189.769 59.208C191.305 60.36 193.193 60.936 195.433 60.936C198.121 60.936 200.489 59.816 202.537 57.576C203.369 56.68 204.041 55.592 204.553 54.312C204.809 53.8 205.129 53.544 205.513 53.544C206.089 53.544 206.505 54.088 206.761 55.176C207.081 56.2 207.241 57.128 207.241 57.96ZM223.764 17.448L223.668 26.76C223.668 27.144 223.796 27.336 224.052 27.336C224.308 27.336 224.564 27.24 224.82 27.048C226.42 25.96 228.948 25.416 232.404 25.416C238.228 25.416 242.26 27.4 244.5 31.368C245.332 32.84 245.748 34.792 245.748 37.224C245.748 39.656 245.588 43.016 245.268 47.304C245.012 51.592 244.884 54.632 244.884 56.424C244.884 62.696 245.78 66.856 247.572 68.904C247.892 69.224 248.052 69.544 248.052 69.864C248.052 70.504 246.676 70.824 243.924 70.824C236.5 70.824 232.788 67.368 232.788 60.456C232.788 57.768 233.428 53.992 234.708 49.128C235.988 44.264 236.628 40.68 236.628 38.376C236.628 36.072 236.084 34.312 234.996 33.096C233.908 31.816 232.404 31.176 230.484 31.176C228.564 31.176 227.028 31.592 225.876 32.424C224.788 33.256 224.116 34.12 223.86 35.016L223.572 36.264C223.508 37.48 223.476 41.352 223.476 47.88C223.476 54.408 223.636 58.664 223.956 60.648C224.276 62.568 224.436 63.656 224.436 63.912C224.436 65.768 223.188 67.432 220.692 68.904C218.196 70.312 215.732 71.016 213.3 71.016C212.404 71.016 211.956 70.504 211.956 69.48L212.148 67.656C213.556 56.904 214.26 45.256 214.26 32.712C214.26 27.848 214.068 22.92 213.684 17.928L213.588 15.816C213.46 14.024 213.076 12.488 212.436 11.208C211.86 9.928 211.316 9.096 210.804 8.712L209.94 8.232C209.492 7.976 209.268 7.688 209.268 7.368C209.268 6.472 210.772 5.384 213.78 4.10399C216.788 2.76 219.092 2.088 220.692 2.088C222.356 2.088 223.252 2.44 223.38 3.144C223.636 6.408 223.764 11.176 223.764 17.448ZM283.007 40.2L282.815 52.488C282.815 61 283.743 66.12 285.599 67.848C285.855 68.104 285.983 68.392 285.983 68.712C285.983 69.672 283.903 70.152 279.743 70.152C275.647 70.152 273.471 68.936 273.215 66.504C273.151 65.928 273.119 64.744 273.119 62.952L273.503 47.592C273.503 47.144 273.247 46.92 272.734 46.92C269.663 46.92 266.783 47.784 264.095 49.512C261.407 51.24 260.062 53.448 260.062 56.136C260.062 57.544 260.447 58.728 261.215 59.688C261.983 60.648 262.911 61.128 263.999 61.128C265.151 61.128 266.079 60.904 266.783 60.456C267.551 60.008 267.999 59.752 268.127 59.688C269.215 59.816 269.759 60.968 269.759 63.144C269.759 65.256 268.767 66.984 266.783 68.328C264.799 69.608 262.719 70.248 260.543 70.248C258.367 70.248 256.479 69.864 254.879 69.096C253.343 68.328 252.223 67.464 251.519 66.504C250.815 65.544 250.239 64.456 249.791 63.24C249.343 61.768 249.119 60.488 249.119 59.4C249.119 54.92 250.527 51.336 253.343 48.648C256.159 45.96 259.775 44.04 264.191 42.888C270.015 41.736 273.055 40.68 273.311 39.72C273.503 39.016 273.599 37.832 273.599 36.168C273.599 32.776 271.871 31.08 268.415 31.08C266.943 31.08 265.631 31.56 264.479 32.52C263.327 33.416 262.751 34.568 262.751 35.976L263.327 38.28C263.199 39.368 262.047 40.008 259.871 40.2L258.815 40.296C256.895 40.296 255.359 39.816 254.207 38.856C253.119 37.896 252.575 36.616 252.575 35.016C252.575 33.992 252.895 32.872 253.535 31.656C254.239 30.376 255.103 29.352 256.127 28.584C257.151 27.816 258.719 27.144 260.831 26.568C263.007 25.928 265.087 25.608 267.071 25.608C269.055 25.608 270.591 25.672 271.679 25.8C272.767 25.928 274.239 26.248 276.095 26.76C278.015 27.208 279.583 28.104 280.799 29.448C282.079 30.792 282.751 32.232 282.815 33.768C282.943 35.24 283.007 37.384 283.007 40.2ZM287.378 31.56L287.666 27.72C287.73 27.144 288.178 26.856 289.01 26.856H292.37L291.986 19.176V18.792C291.986 17.32 293.106 15.912 295.346 14.568C297.586 13.224 299.634 12.552 301.49 12.552C302.066 12.552 302.354 12.808 302.354 13.32V13.416C302.098 15.144 301.842 19.592 301.586 26.76C304.402 26.76 306.194 26.696 306.962 26.568C307.73 26.44 308.146 26.376 308.21 26.376C308.658 26.376 308.882 26.76 308.882 27.528C308.882 28.296 308.53 29.288 307.826 30.504C307.122 31.656 306.354 32.264 305.522 32.328H301.49C301.426 34.504 301.394 38.184 301.394 43.368C301.394 48.488 301.426 52.712 301.49 56.04C301.618 59.368 301.746 61.896 301.874 63.624C302.002 65.288 302.13 66.632 302.258 67.656C302.45 68.68 302.578 69.416 302.642 69.864C302.77 70.312 302.834 70.6 302.834 70.728C302.834 71.368 302.418 71.72 301.586 71.784C299.09 71.784 296.594 71.432 294.098 70.728C291.666 70.024 290.45 68.808 290.45 67.08C291.794 56.328 292.466 44.776 292.466 32.424C290.738 32.424 289.426 32.488 288.53 32.616H288.434C287.858 32.616 287.506 32.264 287.378 31.56Z" fill="white"/>
</svg>
